<svg width="22" height="24" viewBox="0 0 22 24" fill="none" xmlns="http://www.w3.org/2000/svg">
<path fill-rule="evenodd" clip-rule="evenodd" d="M21.0658 0.0131585C21.3148 0.0538287 21.5392 0.187113 21.694 0.386292C21.8489 0.585471 21.9227 0.835823 21.9008 1.08716L21.8913 1.16116C21.4486 3.87283 20.8601 6.10416 20.1258 7.85516C19.4591 9.44416 18.3291 11.322 16.7358 13.4887L16.3448 14.0142L16.1423 14.2812C15.5222 15.0947 15.1412 16.065 15.0423 17.0832C14.9036 18.5155 14.5981 19.5407 14.1258 20.1587C12.4191 22.0397 10.8334 23.2678 9.36876 23.8432C9.28968 23.8742 9.20398 23.8846 9.11977 23.8733C9.03555 23.8621 8.9556 23.8295 8.88745 23.7788C8.81929 23.7281 8.7652 23.6608 8.73026 23.5834C8.69532 23.5059 8.6807 23.4208 8.68776 23.3362L9.07026 18.7487C9.07594 18.6808 9.0677 18.6126 9.04607 18.548C9.02444 18.4835 8.98986 18.4241 8.94445 18.3734C8.89905 18.3227 8.84377 18.2818 8.78201 18.2532C8.72024 18.2246 8.6533 18.209 8.58526 18.2072L8.52726 18.2092C7.73126 18.2808 6.93076 17.9642 6.12576 17.2592C5.41676 16.6385 5.0416 16.0127 5.00026 15.3817L4.99626 15.2702C4.99605 15.1934 4.97816 15.1177 4.944 15.049C4.90983 14.9803 4.86029 14.9203 4.79923 14.8738C4.73817 14.8273 4.66721 14.7955 4.59187 14.7808C4.51653 14.7661 4.43882 14.769 4.36476 14.7892L0.631263 15.8072C0.544872 15.8307 0.453755 15.8305 0.367428 15.8068C0.281101 15.7831 0.202732 15.7366 0.140506 15.6722C0.0782797 15.6078 0.0344793 15.5279 0.0136798 15.4409C-0.00711977 15.3538 -0.00415535 15.2627 0.0222631 15.1772L0.0422631 15.1222L0.241763 14.6772L0.435263 14.2527L0.623263 13.8492L0.805763 13.4667L0.983263 13.1047L1.06976 12.9317L1.23826 12.6012L1.40176 12.2912L1.48176 12.1442L1.63676 11.8662L1.78676 11.6087C1.8601 11.4853 1.93143 11.3697 2.00076 11.2617L2.13676 11.0567C2.31443 10.7967 2.47743 10.5925 2.62576 10.4442C3.17876 9.89083 4.25926 9.38049 5.86726 8.91316C6.70413 8.66988 7.46287 8.21208 8.06826 7.58516C8.21826 7.42949 8.36693 7.27716 8.51426 7.12816L8.95126 6.69016C9.29613 6.34817 9.64651 6.0118 10.0023 5.68116L10.4068 5.31116L10.8018 4.96116C11.8424 4.05316 12.7838 3.35233 13.6258 2.85866C14.0781 2.59366 14.6041 2.32366 15.2038 2.04866L15.6143 1.86466L15.8278 1.77216L16.2713 1.58616C16.4226 1.52383 16.5776 1.46133 16.7363 1.39866L17.2238 1.20966L17.7323 1.01966L18.2633 0.827659L18.8158 0.634659L19.3898 0.439659L19.6848 0.342158L20.2923 0.145158L20.6038 0.0461585C20.7531 -0.000846051 20.9113 -0.0121492 21.0658 0.0131585ZM4.62576 17.0817C4.80943 17.0823 4.98743 17.1013 5.15976 17.1387C4.76643 17.329 4.51743 17.9947 4.41276 19.1357L4.40026 19.2872C4.39465 19.3594 4.4048 19.4319 4.42999 19.4998C4.45519 19.5677 4.49484 19.6294 4.54619 19.6804C4.59755 19.7315 4.65939 19.7708 4.72743 19.7956C4.79547 19.8204 4.86809 19.8302 4.94026 19.8242C6.16326 19.7208 6.87293 19.463 7.06926 19.0507C7.1066 19.2223 7.12543 19.3993 7.12576 19.5817C7.12576 20.5017 6.4591 21.1683 5.12576 21.5817L2.97226 21.7987C2.89886 21.8061 2.82473 21.7971 2.75519 21.7725C2.68565 21.7479 2.62243 21.7081 2.57005 21.6562C2.51767 21.6042 2.47743 21.5413 2.45223 21.472C2.42702 21.4027 2.41747 21.3286 2.42426 21.2552L2.62576 19.0817C3.03876 17.7483 3.70543 17.0817 4.62576 17.0817ZM14.8758 5.58166C14.279 5.58166 13.7067 5.81871 13.2848 6.24067C12.8628 6.66263 12.6258 7.23492 12.6258 7.83166C12.6258 8.4284 12.8628 9.00069 13.2848 9.42265C13.7067 9.84461 14.279 10.0817 14.8758 10.0817C15.4725 10.0817 16.0448 9.84461 16.4668 9.42265C16.8887 9.00069 17.1258 8.4284 17.1258 7.83166C17.1258 7.23492 16.8887 6.66263 16.4668 6.24067C16.0448 5.81871 15.4725 5.58166 14.8758 5.58166Z" fill="white"/>
</svg>
